# xmcd CD database file
#
# Track frame offsets:
#	150
#	19895
#	38885
#	57565
#	75560
#	96425
#	120117
#	133450
#	151935
#	163917
#	181995
#	196615
#
# Disc length: 2905 seconds
#
# Revision: 0
# Processed by: cddbd v1.5.1PL0 Copyright (c) Steve Scherf et al.
# Submitted via: CDex 1.50
#
DISCID=9b0b570c
DTITLE=Pall Mall Jazz Band - Dixieland Parade
DYEAR=1985
DGENRE=Blues
TTITLE0=Streetparade Now
TTITLE1=Samantha's Blues
TTITLE2=Pall Mall Ball
TTITLE3=Frankie and Johnny
TTITLE4=Daddies Pep Tune
TTITLE5=Aircastle
TTITLE6=The Last Of Rhythm
TTITLE7=A Brand New Girl
TTITLE8=Hot Dog Stomp
TTITLE9=The Low Prairie
TTITLE10=Chinese Egg Roll
TTITLE11=I Don't Know
EXTD=YEAR: 1985
EXTT0=
EXTT1=
EXTT2=
EXTT3=
EXTT4=
EXTT5=
EXTT6=
EXTT7=
EXTT8=
EXTT9=
EXTT10=
EXTT11=
PLAYORDER=
